<svg width="40" height="40" viewBox="0 0 40 40" fill="none" xmlns="http://www.w3.org/2000/svg">
<rect width="40" height="40" rx="5" fill="#FFDA2F"/>
<path d="M25.2988 23.3809C25.2988 24.0579 25.1751 24.7057 24.9277 25.3242C24.6803 25.9427 24.3418 26.4635 23.9121 26.8867C23.4434 27.3424 22.8835 27.694 22.2324 27.9414C21.5879 28.1823 20.8392 28.3027 19.9863 28.3027C19.1921 28.3027 18.4271 28.2181 17.6914 28.0488C16.9557 27.8861 16.334 27.6875 15.8262 27.4531V25.3926H15.9629C16.4967 25.7311 17.1217 26.0208 17.8379 26.2617C18.554 26.4961 19.2572 26.6133 19.9473 26.6133C20.4095 26.6133 20.8555 26.5482 21.2852 26.418C21.7214 26.2878 22.1087 26.0599 22.4473 25.7344C22.7337 25.4544 22.9486 25.1191 23.0918 24.7285C23.2415 24.3379 23.3164 23.8854 23.3164 23.3711C23.3164 22.8698 23.2285 22.4466 23.0527 22.1016C22.8835 21.7565 22.6458 21.4798 22.3398 21.2715C22.0013 21.0241 21.5879 20.8516 21.0996 20.7539C20.6178 20.6497 20.0775 20.5977 19.4785 20.5977C18.9056 20.5977 18.3522 20.6367 17.8184 20.7148C17.291 20.793 16.8353 20.8711 16.4512 20.9492V13.459H25.2012V15.168H18.3359V19.0352C18.6159 19.0091 18.9023 18.9896 19.1953 18.9766C19.4883 18.9635 19.7422 18.957 19.957 18.957C20.7448 18.957 21.4349 19.0254 22.0273 19.1621C22.6198 19.2923 23.1634 19.5267 23.6582 19.8652C24.179 20.2233 24.5827 20.6855 24.8691 21.252C25.1556 21.8184 25.2988 22.528 25.2988 23.3809Z" fill="black"/>
</svg>
